<svg id="Icon_24x_Bag" data-name="Icon/24x/Bag" xmlns="http://www.w3.org/2000/svg" width="24" height="24" viewBox="0 0 24 24">
  <g id="Bag">
    <path id="Combined_Shape" data-name="Combined Shape" d="M10.072,0a5.227,5.227,0,0,1,5.189,4.674h.077c1.493,0,3.309.992,3.921,3.773l.812,6.289a5.819,5.819,0,0,1-1.085,4.825,5.873,5.873,0,0,1-4.61,1.776h-8.6c-2.207,0-3.744-.541-4.7-1.652S-.2,16.9.124,14.72l.8-6.205c.525-2.845,2.446-3.84,3.933-3.84A5.221,5.221,0,0,1,10.05,0Zm5.266,6.219H4.856c-.454,0-1.972.183-2.408,2.535l-.795,6.178c-.258,1.733-.059,2.987.6,3.746s1.8,1.114,3.531,1.114h8.6a4.519,4.519,0,0,0,3.442-1.243,4.383,4.383,0,0,0,.723-3.606l-.8-6.232C17.4,7.177,16.495,6.219,15.337,6.219ZM13.075,9.086a.793.793,0,0,1,.8.772.753.753,0,0,1-.749.772h-.047a.772.772,0,0,1,0-1.545Zm-6,0a.793.793,0,0,1,.8.772.754.754,0,0,1-.75.772H7.071a.772.772,0,1,1,0-1.545Zm3-7.542h-.015a3.674,3.674,0,0,0-3.639,3.13H13.7A3.682,3.682,0,0,0,10.069,1.545Z" transform="translate(1.945 2)" fill="#82a4d0"/>
  </g>
</svg>
