<svg xmlns="http://www.w3.org/2000/svg" width="16" height="16.463" viewBox="0 0 16 16.463">
  <g id="Icon_16x_Cooking" data-name="Icon/16x/Cooking" transform="translate(0 0.463)">
    <path id="Vector" d="M0,0H11.3V2.089H0Z" transform="translate(2.475 12.911)" fill="none" stroke="#b1b8c7" stroke-width="1.187"/>
    <path id="Vector-2" data-name="Vector" d="M5.506,5.6H3.513A3.5,3.5,0,0,1,0,2.089V0H9.114V1.994A3.606,3.606,0,0,1,5.506,5.6Z" transform="translate(3.614 5.411)" fill="none" stroke="#b1b8c7" stroke-width="1.187"/>
    <path id="Vector-3" data-name="Vector" d="M.422,0a1.085,1.085,0,0,0,0,1.709c.949.949-.285,1.519-.285,1.519" transform="translate(6.515)" fill="none" stroke="#b1b8c7" stroke-width="1.187"/>
    <path id="Vector-4" data-name="Vector" d="M.422,0a1.085,1.085,0,0,0,0,1.709.872.872,0,0,1-.19,1.519" transform="translate(8.983)" fill="none" stroke="#b1b8c7" stroke-width="1.187"/>
    <path id="Vector-5" data-name="Vector" d="M0,0H12.247" transform="translate(2 5.411)" fill="none" stroke="#b1b8c7" stroke-width="1.187"/>
  </g>
</svg>
