<svg xmlns="http://www.w3.org/2000/svg" width="16" height="16.022" viewBox="0 0 16 16.022">
  <g id="Icon_16x_gear" data-name="Icon/16x/gear" transform="translate(0 0.022)">
    <path id="Vector" d="M12.6,7.419a5.061,5.061,0,0,0-.268-1.609l1.52-1.162L12.782,2.771l-1.788.8A5.564,5.564,0,0,0,8.313,1.966L8.045,0H5.9L5.631,1.966A5.184,5.184,0,0,0,2.95,3.575l-1.877-.8L0,4.648,1.52,5.81a9.849,9.849,0,0,0-.179,1.609,5.061,5.061,0,0,0,.268,1.609L0,10.19l1.073,1.877,1.788-.8a5.564,5.564,0,0,0,2.682,1.609l.268,1.966H7.955l.268-1.966a5.184,5.184,0,0,0,2.682-1.609l1.788.8,1.073-1.877-1.52-1.162A3.506,3.506,0,0,0,12.6,7.419ZM6.972,9.743A2.308,2.308,0,0,1,4.648,7.419,2.366,2.366,0,0,1,6.972,5.095,2.366,2.366,0,0,1,9.3,7.419,2.254,2.254,0,0,1,6.972,9.743Z" transform="translate(1 0.536)" fill="none" stroke="#eea86c" stroke-width="1.117"/>
  </g>
</svg>
