<svg id="Icon_24x_Heart" data-name="Icon/24x/Heart" xmlns="http://www.w3.org/2000/svg" width="24" height="24" viewBox="0 0 24 24">
  <g id="Vector" transform="translate(0 1)" fill="none">
    <path d="M7.536,0a7.735,7.735,0,0,1,2.2.382H9.8a.421.421,0,0,1,.108.068,4.318,4.318,0,0,1,.756.3l.456.2c.18.093.4.265.516.336A3.671,3.671,0,0,1,12,1.5,7.7,7.7,0,0,1,16.62,0a7.244,7.244,0,0,1,2.232.336c4.429,1.389,6.025,6.079,4.692,10.178a14.672,14.672,0,0,1-3.611,5.568,45.953,45.953,0,0,1-7.6,5.743l-.3.175-.312-.186a45.534,45.534,0,0,1-7.643-5.743A14.91,14.91,0,0,1,.468,10.514c-1.356-4.1.24-8.788,4.717-10.2A5.589,5.589,0,0,1,6.252.07H6.4A7.207,7.207,0,0,1,7.4,0Z" stroke="none"/>
    <path d="M 16.56738471984863 1.250001907348633 L 16.5673942565918 1.250001907348633 C 15.1829833984375 1.250011444091797 13.86008358001709 1.685892105102539 12.74172306060791 2.510513305664062 L 11.9985933303833 3.057743072509766 L 11.25652313232422 2.509382247924805 C 11.2283935546875 2.488592147827148 11.14273357391357 2.440341949462891 11.0860538482666 2.408422470092773 L 11.00580310821533 2.362833023071289 C 10.91665363311768 2.310361862182617 10.83447360992432 2.252792358398438 10.74747371673584 2.191843032836914 C 10.69744110107422 2.15678596496582 10.61872100830078 2.10163688659668 10.57275104522705 2.073396682739258 L 10.12633323669434 1.880691528320312 L 10.0819034576416 1.857112884521484 C 9.941033363342285 1.782352447509766 9.774453163146973 1.716842651367188 9.541793823242188 1.644721984863281 L 9.273963928222656 1.56169319152832 L 9.250942230224609 1.540590286254883 C 8.692831993103027 1.366775512695312 8.110053062438965 1.26915168762207 7.516862869262695 1.25018310546875 L 7.40394401550293 1.25018310546875 C 7.11749267578125 1.25018310546875 6.844783782958984 1.268972396850586 6.570213317871094 1.307622909545898 L 6.483512878417969 1.319831848144531 L 6.335077285766602 1.319831848144531 C 6.079120635986328 1.356386184692383 5.82539176940918 1.416189193725586 5.579803466796875 1.497901916503906 L 5.561563491821289 1.503812789916992 C 3.957332611083984 2.010393142700195 2.719173431396484 3.041181564331055 1.980934143066406 4.484752655029297 C 1.13825798034668 6.13255500793457 1.017465591430664 8.179221153259277 1.648649215698242 10.10271549224854 C 2.34620475769043 11.99610137939453 3.484832763671875 13.74588489532471 4.942928314208984 15.16494274139404 C 7.116611480712891 17.18681907653809 9.502057075500488 18.99474906921387 12.03754329681396 20.54255676269531 C 14.56020259857178 18.98509979248047 16.92529678344727 17.18085098266602 19.072265625 15.17561721801758 C 20.53420066833496 13.7628173828125 21.67109298706055 12.01115894317627 22.36118125915527 10.1083869934082 C 22.98615646362305 8.171018600463867 22.85619735717773 6.113768577575684 22.00379371643066 4.461051940917969 C 21.26873397827148 3.035852432250977 20.04941368103027 2.021902084350586 18.47766304016113 1.528831481933594 L 18.46677398681641 1.525362014770508 C 17.90283393859863 1.342761993408203 17.28143310546875 1.25018310546875 16.61984252929688 1.25018310546875 L 16.56738471984863 1.250001907348633 M 16.56738471984863 3.814697265625e-06 C 16.58488464355469 3.814697265625e-06 16.60233306884766 6.29425048828125e-05 16.61984252929688 0.00018310546875 C 17.37704277038574 0.00018310546875 18.13303375244141 0.1034126281738281 18.8518238067627 0.3361415863037109 C 23.28097343444824 1.725603103637695 24.876953125 6.414992332458496 23.54377365112305 10.51387214660645 C 22.78777313232422 12.60847282409668 21.55179405212402 14.52012252807617 19.93301391601562 16.08210182189941 C 17.6158332824707 18.24732208251953 15.07306385040283 20.16939163208008 12.33589363098145 21.82516288757324 L 12.03589344024658 22.00000190734863 L 11.72389316558838 21.8135814666748 C 8.977123260498047 20.16939163208008 6.419954299926758 18.24732208251953 4.081172943115234 16.07052230834961 C 2.473194122314453 14.50854301452637 1.236003875732422 12.60847282409668 0.4680137634277344 10.51387214660645 C -0.8879661560058594 6.414992332458496 0.7080135345458984 1.725603103637695 5.185163497924805 0.3118324279785156 C 5.533163070678711 0.1960430145263672 5.89195442199707 0.1149921417236328 6.251953125 0.06983184814453125 L 6.395954132080078 0.06983184814453125 C 6.733142852783203 0.02236175537109375 7.067943572998047 0.00018310546875 7.40394401550293 0.00018310546875 L 7.535943984985352 0.00018310546875 C 8.291933059692383 0.02236175537109375 9.023923873901367 0.1497325897216797 9.733113288879395 0.3824615478515625 L 9.803913116455078 0.3824615478515625 C 9.851913452148438 0.4044628143310547 9.887913703918457 0.42877197265625 9.911913871765137 0.4507732391357422 C 10.17711353302002 0.5329818725585938 10.42791366577148 0.6256122589111328 10.66790390014648 0.7529830932617188 L 11.12390327453613 0.9498214721679688 C 11.30390357971191 1.042451858520508 11.5199031829834 1.214971542358398 11.63989353179932 1.285602569580078 C 11.7598934173584 1.353921890258789 11.89189338684082 1.424552917480469 11.99989318847656 1.50444221496582 C 13.31908798217773 0.5317325592041016 14.9179630279541 1.52587890625e-05 16.56738471984863 3.814697265625e-06 Z" stroke="none" fill="#82a4d0"/>
  </g>
  <path id="Vector-2" data-name="Vector" d="M17.4,4.2a3.823,3.823,0,0,1,2.532,3.659V8" transform="translate(0 1)" fill="none" stroke="#82a4d0" stroke-width="1.25"/>
</svg>
