<svg id="Icon_16x_Hide" data-name="Icon/16x/Hide" xmlns="http://www.w3.org/2000/svg" width="16" height="16" viewBox="0 0 16 16">
  <path id="Combined_Shape" data-name="Combined Shape" d="M7,0C9.9,0,12.5,2.162,13.957,5.779a.587.587,0,0,1,0,.441C12.5,9.838,9.9,12,7,12H7C4.1,12,1.5,9.838.043,6.22a.593.593,0,0,1,0-.441C1.5,2.162,4.1,0,7,0ZM7,1.118C4.595,1.118,2.4,2.939,1.1,6c1.3,3.062,3.5,4.882,5.9,4.883S11.6,9.061,12.9,6C11.6,2.939,9.406,1.118,7,1.118ZM7,3.085A2.834,2.834,0,0,1,9.738,6,2.833,2.833,0,0,1,7,8.914,2.833,2.833,0,0,1,4.262,6,2.833,2.833,0,0,1,7,3.085ZM7,4.2A1.747,1.747,0,0,0,5.312,6,1.746,1.746,0,0,0,7,7.8,1.746,1.746,0,0,0,8.688,6,1.747,1.747,0,0,0,7,4.2Z" transform="translate(1 2)" fill="#b1b8c7"/>
  <path id="Vector_5" data-name="Vector 5" d="M0,11,10,0" transform="translate(3 3)" fill="none" stroke="#b1b8c7" stroke-width="1"/>
</svg>
