<svg xmlns="http://www.w3.org/2000/svg" width="16" height="16.488" viewBox="0 0 16 16.488">
  <g id="Icon_16x_Hot_water" data-name="Icon/16x/Hot water" transform="translate(0 0.488)">
    <path id="Vector" d="M.7,5.1A4.3,4.3,0,0,0,0,7.6a4.7,4.7,0,0,0,9.4,0,5.2,5.2,0,0,0-.7-2.5C8.4,4.9,4.6,0,4.6,0S.8,4.9.7,5.1Z" transform="translate(3 2.7)" fill="none" stroke="#b1b8c7" stroke-width="1.25"/>
    <path id="Vector-2" data-name="Vector" d="M.533,0a1.511,1.511,0,0,0,0,2.3,1.252,1.252,0,0,1-.3,2.1" transform="translate(8.167 7.3)" fill="none" stroke="#b1b8c7" stroke-width="1.25"/>
    <path id="Vector-3" data-name="Vector" d="M.444,0a1.235,1.235,0,0,0,0,1.9.992.992,0,0,1-.2,1.7" transform="translate(11.856)" fill="none" stroke="#b1b8c7" stroke-width="1.25"/>
  </g>
</svg>
