<svg id="Icon_24x_Locate" data-name="Icon/24x/Locate" xmlns="http://www.w3.org/2000/svg" width="24" height="24" viewBox="0 0 24 24">
  <path id="Vector" d="M14.85,12.608A8.468,8.468,0,0,0,16.2,8.2,8.1,8.1,0,1,0,0,8.2a7.3,7.3,0,0,0,1.35,4.405c.15.3,6.75,8.962,6.75,8.962S14.7,12.911,14.85,12.608Z" transform="translate(3.9 0.911)" fill="none" stroke="#82a4d0" stroke-width="1.25"/>
  <path id="Vector-2" data-name="Vector" d="M5.1,2.582A2.566,2.566,0,0,1,2.55,5.165,2.566,2.566,0,0,1,0,2.582,2.566,2.566,0,0,1,2.55,0,2.566,2.566,0,0,1,5.1,2.582Z" transform="translate(9.45 6.38)" fill="none" stroke="#82a4d0" stroke-width="1.25"/>
</svg>
