<svg id="Frame" xmlns="http://www.w3.org/2000/svg" width="67" height="83.641" viewBox="0 0 67 83.641">
  <g id="Group">
    <path id="Vector" d="M0,0,16.641,32.405" transform="translate(38.317 48.608)" fill="#fff"/>
    <path id="Vector-2" data-name="Vector" d="M0,0H8.758V36.346H0Z" transform="matrix(0.887, -0.461, 0.461, 0.887, 34.355, 50.707)" fill="#eea86c"/>
  </g>
  <path id="Vector-3" data-name="Vector" d="M45.324,0H21.676A21.586,21.586,0,0,0,0,21.676V83.641H8.758V59.775c1.095-2.846,3.284-6.35,6.788-6.569H44.667A22.427,22.427,0,0,0,67,30.873v-9.2A21.586,21.586,0,0,0,45.324,0ZM58.242,30.873A13.643,13.643,0,0,1,44.667,44.448H15.327a15.425,15.425,0,0,0-6.35,1.971V21.676a12.755,12.755,0,0,1,12.7-12.918H45.324A12.942,12.942,0,0,1,58.242,21.676Z" fill="#eea86c"/>
</svg>
