<svg id="Icon_24x_Map" data-name="Icon/24x/Map" xmlns="http://www.w3.org/2000/svg" width="24" height="24" viewBox="0 0 24 24">
  <path id="Combined_Shape" data-name="Combined Shape" d="M11,0A11,11,0,1,1,0,11,11.013,11.013,0,0,1,11,0Zm0,1.593A9.407,9.407,0,1,0,20.407,11,9.419,9.419,0,0,0,11,1.593Zm4.11,5.3a.8.8,0,0,1,.2.8l-1.69,5.4a.8.8,0,0,1-.522.522l-5.4,1.691a.8.8,0,0,1-1-1l1.691-5.4a.792.792,0,0,1,.521-.522l5.4-1.691A.794.794,0,0,1,15.11,6.89ZM13.333,8.667,9.78,9.78,8.668,13.333l3.552-1.113Z" transform="translate(1 1)" fill="#82a4d0"/>
</svg>
