<svg xmlns="http://www.w3.org/2000/svg" width="18" height="16" viewBox="0 0 18 16">
  <path id="Combined_Shape" data-name="Combined Shape" d="M13.11,0A4.933,4.933,0,0,1,18,5.186v5.635a5.31,5.31,0,0,1-1.538,3.85A4.678,4.678,0,0,1,13.123,16H4.874a4.674,4.674,0,0,1-3.336-1.329A5.31,5.31,0,0,1,0,10.821V5.186A4.933,4.933,0,0,1,4.89,0Zm0,1.231H4.89A3.68,3.68,0,0,0,1.256,5.186v5.635A4.1,4.1,0,0,0,2.425,13.8a3.427,3.427,0,0,0,2.452.971H13.11s.008,0,.013,0a3.426,3.426,0,0,0,2.452-.971,4.1,4.1,0,0,0,1.169-2.978V5.186A3.68,3.68,0,0,0,13.11,1.231Zm1.319,3.8a.608.608,0,0,1-.091.866L10.617,8.858a2.587,2.587,0,0,1-3.181,0L3.682,5.9a.608.608,0,0,1-.1-.866.639.639,0,0,1,.883-.093L8.221,7.9a1.313,1.313,0,0,0,1.61,0l3.714-2.959A.636.636,0,0,1,14.429,5.029Z" fill="#b1b8c7"/>
</svg>
