<svg xmlns="http://www.w3.org/2000/svg" width="15.603" height="16.369" viewBox="0 0 15.603 16.369">
  <g id="Iconly_Bold_Home" data-name="Iconly/Bold/Home" transform="translate(-14 -13)">
    <g id="Unseleted" transform="translate(14 13)">
      <g id="Home">
        <path id="Fill_1" data-name="Fill 1" d="M8.918,10.878a1.659,1.659,0,0,1,1.662,1.651V14.87a.359.359,0,0,0,.358.357h1.451a2.062,2.062,0,0,0,2.073-2.046V6.541a1.276,1.276,0,0,0-.508-1l-5.018-4a1.839,1.839,0,0,0-2.292,0l-4.984,4a1.275,1.275,0,0,0-.518,1.011v6.627a2.062,2.062,0,0,0,2.073,2.046H4.679a.37.37,0,0,0,.374-.365.614.614,0,0,1,.014-.13v-2.2a1.661,1.661,0,0,1,1.651-1.651Zm3.471,5.491H10.925a1.5,1.5,0,0,1-1.486-1.5V12.529a.516.516,0,0,0-.521-.509h-2.2a.515.515,0,0,0-.513.509v2.334a.553.553,0,0,1-.024.164,1.514,1.514,0,0,1-1.506,1.343H3.214A3.2,3.2,0,0,1,0,13.181V6.548A2.4,2.4,0,0,1,.958,4.643L5.932.651a2.977,2.977,0,0,1,3.714,0l5.01,4A2.4,2.4,0,0,1,15.6,6.532v6.649A3.2,3.2,0,0,1,12.389,16.369Z" fill="#b1b8c7"/>
      </g>
    </g>
  </g>
</svg>
