<svg xmlns="http://www.w3.org/2000/svg" width="18" height="17" viewBox="0 0 18 17">
  <g id="Iconly_Bold_Saved" data-name="Iconly/Bold/Saved" transform="translate(-12 -12)">
    <g id="Unselected" transform="translate(12 12)">
      <path id="Combined_Shape" data-name="Combined Shape" d="M9,.906A6.1,6.1,0,0,1,13.968.283c3.569,1.141,4.677,5,3.686,8.068-1.529,4.821-8.059,8.417-8.336,8.568a.663.663,0,0,1-.632,0c-.275-.149-6.758-3.692-8.338-8.568h0C-.645,5.281.46,1.423,4.025.283A5.96,5.96,0,0,1,9,.906Zm-4.569.622C1.545,2.451.82,5.527,1.6,7.953c1.233,3.8,6.1,6.877,7.4,7.638,1.3-.769,6.2-3.878,7.4-7.635.783-2.429.056-5.505-2.833-6.428a4.682,4.682,0,0,0-4.16.69.664.664,0,0,1-.8.005A4.634,4.634,0,0,0,4.429,1.528ZM12.72,3.259A3.079,3.079,0,0,1,14.861,5.94a.655.655,0,0,1-.6.7l-.055,0a.657.657,0,0,1-.657-.6A1.767,1.767,0,0,0,12.316,4.5a.653.653,0,0,1-.426-.823A.663.663,0,0,1,12.72,3.259Z" fill="#b1b8c7"/>
    </g>
  </g>
</svg>
