<svg xmlns="http://www.w3.org/2000/svg" width="15.278" height="16.164" viewBox="0 0 15.278 16.164">
  <g id="Unselected" transform="translate(1.278)">
    <g id="Bag">
      <path id="Combined_Shape" data-name="Combined Shape" d="M7.63,0a3.959,3.959,0,0,1,3.931,3.541h.058c1.131,0,2.506.751,2.97,2.858l.615,4.764a4.408,4.408,0,0,1-.822,3.655,4.449,4.449,0,0,1-3.492,1.346H4.378A4.436,4.436,0,0,1,.817,14.913a4.555,4.555,0,0,1-.723-3.762L.7,6.45A3.135,3.135,0,0,1,3.678,3.541,3.955,3.955,0,0,1,7.613,0Zm3.989,4.711H3.678c-.344,0-1.494.139-1.824,1.92l-.6,4.68A3.514,3.514,0,0,0,1.7,14.15a3.391,3.391,0,0,0,2.675.844H10.89a3.424,3.424,0,0,0,2.608-.942,3.32,3.32,0,0,0,.548-2.732L13.438,6.6C13.179,5.437,12.5,4.711,11.618,4.711ZM9.9,6.883a.6.6,0,0,1,.6.585.57.57,0,0,1-.567.585H9.9a.585.585,0,0,1,0-1.17Zm-4.548,0a.6.6,0,0,1,.6.585.571.571,0,0,1-.568.585H5.357a.585.585,0,0,1,0-1.17ZM7.627,1.17H7.616A2.783,2.783,0,0,0,4.859,3.541h5.522A2.789,2.789,0,0,0,7.627,1.17Z" transform="translate(-1.278)" fill="#b1b8c7"/>
    </g>
  </g>
</svg>
