<svg id="Icon_16x_Parking" data-name="Icon/16x/Parking" xmlns="http://www.w3.org/2000/svg" width="16.173" height="16" viewBox="0 0 16.173 16">
  <path id="Vector" d="M0,0H4.222" transform="translate(5.882 12.677)" fill="none" stroke="#b1b8c7" stroke-width="1.199"/>
  <path id="Vector-2" data-name="Vector" d="M12.763,7.677h.96a1.167,1.167,0,0,0,1.152-1.152V4.7a1.234,1.234,0,0,0-.96-1.152L12.955.768A1.123,1.123,0,0,0,11.9,0H4.51a1.01,1.01,0,0,0-.96.768L1.823,3.551H.96A1.14,1.14,0,0,0,0,4.7V6.525A1.167,1.167,0,0,0,1.152,7.677h.672" transform="translate(0.7 5)" fill="none" stroke="#b1b8c7" stroke-width="1.199"/>
  <path id="Vector-3" data-name="Vector" d="M3.455,1.727A1.727,1.727,0,1,1,1.727,0,1.727,1.727,0,0,1,3.455,1.727Z" transform="translate(2.427 11.045)" fill="none" stroke="#b1b8c7" stroke-width="1.199"/>
  <path id="Vector-4" data-name="Vector" d="M3.455,1.727A1.727,1.727,0,1,1,1.727,0,1.727,1.727,0,0,1,3.455,1.727Z" transform="translate(10.008 11.045)" fill="none" stroke="#b1b8c7" stroke-width="1.199"/>
  <path id="Vector-5" data-name="Vector" d="M0,0H12.091" transform="translate(2.523 8.55)" fill="none" stroke="#b1b8c7" stroke-width="1.199"/>
</svg>
