<svg id="Icon_16x_personal" data-name="Icon/16x/personal" xmlns="http://www.w3.org/2000/svg" width="16" height="16" viewBox="0 0 16 16">
  <path id="Vector" d="M6.764,3.382A3.382,3.382,0,1,1,3.382,0,3.382,3.382,0,0,1,6.764,3.382Z" transform="translate(4.442 0.658)" fill="none" stroke="#eea86c" stroke-width="1.174"/>
  <path id="Vector-2" data-name="Vector" d="M5.824,5.261a16.1,16.1,0,0,0,5.824-1.409,7.648,7.648,0,0,0-.939-1.5A5.839,5.839,0,0,0,5.824,0,5.607,5.607,0,0,0,.939,2.348,4.358,4.358,0,0,0,0,3.852,16.1,16.1,0,0,0,5.824,5.261Z" transform="translate(2 9.582)" fill="none" stroke="#eea86c" stroke-width="1.174"/>
</svg>
