<svg xmlns="http://www.w3.org/2000/svg" width="18" height="16" viewBox="0 0 18 16">
  <path id="Vector" d="M13.445,0a4.58,4.58,0,0,1,3.222,1.316A4.45,4.45,0,0,1,18,4.489v7.022A4.524,4.524,0,0,1,13.445,16H4.554A4.523,4.523,0,0,1,0,11.511V4.489A4.518,4.518,0,0,1,4.554,0Zm1.018,4.622a.689.689,0,0,0-.5.178L9.9,8A1.423,1.423,0,0,1,8.1,8L4.05,4.8a.691.691,0,0,0-.9.062.673.673,0,0,0-.064.889l.118.116L7.3,9.022a2.862,2.862,0,0,0,3.518,0l4.06-3.209.072-.071a.681.681,0,0,0-.01-.889A.76.76,0,0,0,14.463,4.622Z" fill="#fff"/>
</svg>
