<svg xmlns="http://www.w3.org/2000/svg" width="15.772" height="16.667" viewBox="0 0 15.772 16.667">
  <g id="Bag" transform="translate(-13.669 -12)">
    <path id="Combined_Shape" data-name="Combined Shape" d="M7.89,0a4.283,4.283,0,0,1,4.377,3.979h-.023a.4.4,0,0,1-.038.188h.137a2.8,2.8,0,0,1,2.631,2.4l.049.2.674,5.162c.485,3.293-1.409,4.677-3.993,4.736l-.173,0H4.266c-2.626,0-4.649-.91-4.2-4.514l.03-.224L.773,6.767a2.77,2.77,0,0,1,2.551-2.6l.121,0h.068a.515.515,0,0,1,0-.188A4.283,4.283,0,0,1,7.89,0ZM5.342,6.941a.758.758,0,1,0,.774.758l-.006-.1A.769.769,0,0,0,5.342,6.941Zm5.072,0a.758.758,0,1,0,.774.758A.766.766,0,0,0,10.414,6.941ZM7.856,1.085A2.976,2.976,0,0,0,4.8,3.979a.515.515,0,0,1,0,.188h6.143a.518.518,0,0,1-.038-.188A2.976,2.976,0,0,0,7.856,1.085Z" transform="translate(13.669 12)" fill="#fff"/>
  </g>
</svg>
